<svg xmlns="http://www.w3.org/2000/svg" xmlns:xlink="http://www.w3.org/1999/xlink" width="144" zoomAndPan="magnify" viewBox="0 0 108 107.999999" height="144" preserveAspectRatio="xMidYMid meet" version="1.0"><defs><g/><clipPath id="3dcf7e849f"><path d="M 54 0 C 24.175781 0 0 24.175781 0 54 C 0 83.824219 24.175781 108 54 108 C 83.824219 108 108 83.824219 108 54 C 108 24.175781 83.824219 0 54 0 Z M 54 0 " clip-rule="nonzero"/></clipPath><clipPath id="c5d7b68245"><path d="M 0 0 L 108 0 L 108 108 L 0 108 Z M 0 0 " clip-rule="nonzero"/></clipPath><clipPath id="53b032c370"><path d="M 54 0 C 24.175781 0 0 24.175781 0 54 C 0 83.824219 24.175781 108 54 108 C 83.824219 108 108 83.824219 108 54 C 108 24.175781 83.824219 0 54 0 Z M 54 0 " clip-rule="nonzero"/></clipPath><clipPath id="f8771afa03"><rect x="0" width="108" y="0" height="108"/></clipPath><clipPath id="84bb704ddb"><rect x="0" width="38" y="0" height="48"/></clipPath></defs><g clip-path="url(#3dcf7e849f)"><g transform="matrix(1, 0, 0, 1, 0, -0.000000000000000835)"><g clip-path="url(#f8771afa03)"><g clip-path="url(#c5d7b68245)"><g clip-path="url(#53b032c370)"><rect x="-23.76" width="155.52" fill="#00bc7d" height="155.519998" y="-23.76" fill-opacity="1"/></g></g></g></g></g><g transform="matrix(1, 0, 0, 1, 35, 30)"><g clip-path="url(#84bb704ddb)"><g fill="#ffffff" fill-opacity="1"><g transform="translate(0.585272, 36.851944)"><g><path d="M 13.367188 0 L 15.945312 0 L 15.945312 -25.707031 L 13.367188 -25.707031 L 13.367188 -14.363281 L 5.007812 -14.363281 L 5.007812 -25.707031 L 2.429688 -25.707031 L 2.429688 0 L 5.007812 0 L 5.007812 -11.675781 L 13.367188 -11.675781 Z M 13.367188 0 "/></g></g></g><g fill="#ffffff" fill-opacity="1"><g transform="translate(18.999988, 36.851944)"><g><path d="M 15.0625 3.535156 L 10.421875 3.535156 L 10.421875 0.332031 C 12.582031 -0.0117188 14.167969 -1.332031 15.171875 -3.628906 C 16.179688 -5.921875 16.683594 -9 16.683594 -12.851562 C 16.683594 -17.050781 16.089844 -20.316406 14.898438 -22.648438 C 13.707031 -24.984375 11.808594 -26.148438 9.207031 -26.148438 C 6.582031 -26.148438 4.671875 -24.984375 3.480469 -22.648438 C 2.289062 -20.316406 1.695312 -17.050781 1.695312 -12.851562 C 1.695312 -9 2.191406 -5.921875 3.1875 -3.628906 C 4.179688 -1.332031 5.769531 -0.0117188 7.957031 0.332031 L 7.957031 1.695312 C 7.957031 2.972656 8.238281 4.015625 8.800781 4.824219 C 9.367188 5.636719 10.25 6.039062 11.453125 6.039062 L 15.0625 6.039062 Z M 9.207031 -2.246094 C 7.488281 -2.246094 6.261719 -3.019531 5.523438 -4.566406 C 4.789062 -6.113281 4.417969 -8.175781 4.417969 -10.753906 L 4.417969 -14.953125 C 4.417969 -17.53125 4.789062 -19.59375 5.523438 -21.140625 C 6.261719 -22.6875 7.488281 -23.460938 9.207031 -23.460938 C 10.902344 -23.460938 12.117188 -22.6875 12.851562 -21.140625 C 13.589844 -19.59375 13.957031 -17.53125 13.957031 -14.953125 L 13.957031 -10.753906 C 13.957031 -8.175781 13.589844 -6.113281 12.851562 -4.566406 C 12.117188 -3.019531 10.902344 -2.246094 9.207031 -2.246094 Z M 9.207031 -2.246094 "/></g></g></g></g></g></svg>